<svg xmlns="http://www.w3.org/2000/svg" xmlns:xlink="http://www.w3.org/1999/xlink" width="320" zoomAndPan="magnify" viewBox="0 0 240 74.999997" height="100" preserveAspectRatio="xMidYMid meet" version="1.0"><defs><g/></defs><g fill="#000000" fill-opacity="1"><g transform="translate(28.498549, 54.864106)"><g><path d="M 8.96875 -1.1875 C 8.96875 0.707031 8.707031 2.296875 8.1875 3.578125 C 7.664062 4.859375 7 5.941406 6.1875 6.828125 C 5.382812 7.722656 4.484375 8.453125 3.484375 9.015625 C 2.492188 9.585938 1.519531 10.109375 0.5625 10.578125 L -1.65625 6.828125 C -0.425781 6.234375 0.523438 5.59375 1.203125 4.90625 C 1.890625 4.226562 2.390625 3.566406 2.703125 2.921875 C 3.023438 2.273438 3.207031 1.648438 3.25 1.046875 C 3.300781 0.441406 3.328125 -0.109375 3.328125 -0.609375 L 3.328125 -32.140625 L 8.96875 -32.140625 Z M 8.96875 -1.1875 "/></g></g></g><g fill="#000000" fill-opacity="1"><g transform="translate(40.790944, 54.864106)"><g><path d="M 8.453125 -32.140625 L 8.453125 -12.25 C 8.453125 -9.300781 9.066406 -7.203125 10.296875 -5.953125 C 11.535156 -4.703125 13.210938 -4.078125 15.328125 -4.078125 C 17.484375 -4.078125 19.070312 -4.796875 20.09375 -6.234375 C 21.125 -7.679688 21.640625 -9.6875 21.640625 -12.25 L 21.640625 -32.140625 L 27.296875 -32.140625 L 27.296875 -11.8125 C 27.296875 -10.164062 27.082031 -8.613281 26.65625 -7.15625 C 26.226562 -5.707031 25.519531 -4.425781 24.53125 -3.3125 C 23.550781 -2.207031 22.253906 -1.332031 20.640625 -0.6875 C 19.035156 -0.0390625 17.0625 0.28125 14.71875 0.28125 C 12.46875 0.28125 10.585938 -0.0390625 9.078125 -0.6875 C 7.578125 -1.332031 6.359375 -2.207031 5.421875 -3.3125 C 4.492188 -4.425781 3.832031 -5.707031 3.4375 -7.15625 C 3.039062 -8.613281 2.84375 -10.164062 2.84375 -11.8125 L 2.84375 -32.140625 Z M 8.453125 -32.140625 "/></g></g></g><g fill="#000000" fill-opacity="1"><g transform="translate(70.92866, 54.864106)"><g><path d="M 3.328125 -32.140625 C 3.546875 -32.140625 4.050781 -32.144531 4.84375 -32.15625 C 5.632812 -32.175781 6.519531 -32.1875 7.5 -32.1875 C 8.476562 -32.1875 9.457031 -32.191406 10.4375 -32.203125 C 11.425781 -32.222656 12.234375 -32.234375 12.859375 -32.234375 C 16.785156 -32.234375 19.648438 -31.460938 21.453125 -29.921875 C 23.253906 -28.390625 24.15625 -26.234375 24.15625 -23.453125 C 24.15625 -21.617188 23.695312 -19.988281 22.78125 -18.5625 C 21.863281 -17.132812 20.363281 -16.101562 18.28125 -15.46875 C 19.164062 -14.96875 19.953125 -14.273438 20.640625 -13.390625 C 21.335938 -12.503906 22.019531 -11.421875 22.6875 -10.140625 C 23.351562 -8.859375 24.035156 -7.367188 24.734375 -5.671875 C 25.429688 -3.984375 26.238281 -2.09375 27.15625 0 L 21.03125 0 C 19.957031 -2.5 19.015625 -4.632812 18.203125 -6.40625 C 17.398438 -8.175781 16.617188 -9.613281 15.859375 -10.71875 C 15.097656 -11.832031 14.28125 -12.640625 13.40625 -13.140625 C 12.539062 -13.648438 11.519531 -13.90625 10.34375 -13.90625 L 8.96875 -13.90625 L 8.96875 0 L 3.328125 0 Z M 8.96875 -18.03125 L 12.625 -18.03125 C 14.394531 -18.03125 15.765625 -18.425781 16.734375 -19.21875 C 17.703125 -20.007812 18.1875 -21.179688 18.1875 -22.734375 C 18.1875 -23.429688 18.085938 -24.113281 17.890625 -24.78125 C 17.703125 -25.445312 17.378906 -26.03125 16.921875 -26.53125 C 16.460938 -27.039062 15.84375 -27.445312 15.0625 -27.75 C 14.289062 -28.050781 13.320312 -28.203125 12.15625 -28.203125 L 8.96875 -28.203125 Z M 8.96875 -18.03125 "/></g></g></g><g fill="#000000" fill-opacity="1"><g transform="translate(98.171261, 54.864106)"><g><path d="M 3.328125 -32.140625 L 8.96875 -32.140625 L 8.96875 0 L 3.328125 0 Z M 3.328125 -32.140625 "/></g></g></g><g fill="#000000" fill-opacity="1"><g transform="translate(110.463656, 54.864106)"><g><path d="M 12.578125 -32.5625 C 13.679688 -32.5625 14.738281 -32.457031 15.75 -32.25 C 16.769531 -32.050781 17.695312 -31.816406 18.53125 -31.546875 C 19.375 -31.273438 20.085938 -30.992188 20.671875 -30.703125 C 21.253906 -30.421875 21.660156 -30.203125 21.890625 -30.046875 L 19.5625 -25.96875 L 18.9375 -26.296875 C 18.53125 -26.515625 17.992188 -26.765625 17.328125 -27.046875 C 16.660156 -27.335938 15.929688 -27.59375 15.140625 -27.8125 C 14.347656 -28.039062 13.585938 -28.15625 12.859375 -28.15625 C 11.722656 -28.15625 10.734375 -27.882812 9.890625 -27.34375 C 9.054688 -26.800781 8.640625 -25.960938 8.640625 -24.828125 C 8.640625 -23.398438 9.097656 -22.234375 10.015625 -21.328125 C 10.929688 -20.429688 12.367188 -19.601562 14.328125 -18.84375 C 15.597656 -18.332031 16.726562 -17.800781 17.71875 -17.25 C 18.71875 -16.695312 19.566406 -16.054688 20.265625 -15.328125 C 20.960938 -14.597656 21.492188 -13.757812 21.859375 -12.8125 C 22.222656 -11.863281 22.40625 -10.726562 22.40625 -9.40625 C 22.40625 -8.195312 22.175781 -7.003906 21.71875 -5.828125 C 21.257812 -4.660156 20.578125 -3.625 19.671875 -2.71875 C 18.773438 -1.820312 17.660156 -1.097656 16.328125 -0.546875 C 14.992188 0.00390625 13.457031 0.28125 11.71875 0.28125 C 10.488281 0.28125 9.316406 0.15625 8.203125 -0.09375 C 7.097656 -0.34375 6.09375 -0.632812 5.1875 -0.96875 C 4.289062 -1.300781 3.519531 -1.640625 2.875 -1.984375 C 2.226562 -2.335938 1.742188 -2.609375 1.421875 -2.796875 L 3.421875 -7.171875 L 4.265625 -6.6875 C 4.835938 -6.375 5.535156 -6.023438 6.359375 -5.640625 C 7.179688 -5.265625 8.050781 -4.914062 8.96875 -4.59375 C 9.882812 -4.28125 10.675781 -4.125 11.34375 -4.125 C 13.019531 -4.125 14.269531 -4.535156 15.09375 -5.359375 C 15.914062 -6.179688 16.328125 -7.335938 16.328125 -8.828125 C 16.328125 -9.523438 16.21875 -10.132812 16 -10.65625 C 15.78125 -11.175781 15.460938 -11.625 15.046875 -12 C 14.640625 -12.382812 14.140625 -12.726562 13.546875 -13.03125 C 12.960938 -13.332031 12.304688 -13.625 11.578125 -13.90625 C 10.160156 -14.507812 8.890625 -15.109375 7.765625 -15.703125 C 6.640625 -16.304688 5.679688 -16.992188 4.890625 -17.765625 C 4.097656 -18.546875 3.492188 -19.4375 3.078125 -20.4375 C 2.671875 -21.4375 2.46875 -22.628906 2.46875 -24.015625 C 2.46875 -25.191406 2.71875 -26.289062 3.21875 -27.3125 C 3.726562 -28.34375 4.425781 -29.242188 5.3125 -30.015625 C 6.195312 -30.796875 7.253906 -31.414062 8.484375 -31.875 C 9.722656 -32.332031 11.085938 -32.5625 12.578125 -32.5625 Z M 12.578125 -32.5625 "/></g></g></g><g fill="#000000" fill-opacity="1"><g transform="translate(134.526368, 54.864106)"><g><path d="M 3.328125 -32.140625 L 22.40625 -32.140625 L 22.40625 -27.859375 L 8.96875 -27.859375 L 8.96875 -18.890625 L 20.03125 -18.890625 L 19.3125 -14.578125 L 8.96875 -14.578125 L 8.96875 -4.265625 L 23.125 -4.265625 L 23.125 0 L 3.328125 0 Z M 3.328125 -32.140625 "/></g></g></g><g fill="#000000" fill-opacity="1"><g transform="translate(158.873843, 54.864106)"><g><path d="M 3.328125 -32.140625 C 3.546875 -32.140625 4.050781 -32.144531 4.84375 -32.15625 C 5.632812 -32.175781 6.519531 -32.1875 7.5 -32.1875 C 8.476562 -32.1875 9.457031 -32.191406 10.4375 -32.203125 C 11.425781 -32.222656 12.234375 -32.234375 12.859375 -32.234375 C 16.785156 -32.234375 19.648438 -31.460938 21.453125 -29.921875 C 23.253906 -28.390625 24.15625 -26.234375 24.15625 -23.453125 C 24.15625 -21.617188 23.695312 -19.988281 22.78125 -18.5625 C 21.863281 -17.132812 20.363281 -16.101562 18.28125 -15.46875 C 19.164062 -14.96875 19.953125 -14.273438 20.640625 -13.390625 C 21.335938 -12.503906 22.019531 -11.421875 22.6875 -10.140625 C 23.351562 -8.859375 24.035156 -7.367188 24.734375 -5.671875 C 25.429688 -3.984375 26.238281 -2.09375 27.15625 0 L 21.03125 0 C 19.957031 -2.5 19.015625 -4.632812 18.203125 -6.40625 C 17.398438 -8.175781 16.617188 -9.613281 15.859375 -10.71875 C 15.097656 -11.832031 14.28125 -12.640625 13.40625 -13.140625 C 12.539062 -13.648438 11.519531 -13.90625 10.34375 -13.90625 L 8.96875 -13.90625 L 8.96875 0 L 3.328125 0 Z M 8.96875 -18.03125 L 12.625 -18.03125 C 14.394531 -18.03125 15.765625 -18.425781 16.734375 -19.21875 C 17.703125 -20.007812 18.1875 -21.179688 18.1875 -22.734375 C 18.1875 -23.429688 18.085938 -24.113281 17.890625 -24.78125 C 17.703125 -25.445312 17.378906 -26.03125 16.921875 -26.53125 C 16.460938 -27.039062 15.84375 -27.445312 15.0625 -27.75 C 14.289062 -28.050781 13.320312 -28.203125 12.15625 -28.203125 L 8.96875 -28.203125 Z M 8.96875 -18.03125 "/></g></g></g><g fill="#000000" fill-opacity="1"><g transform="translate(186.116444, 54.864106)"><g><path d="M 3.328125 -32.140625 C 3.546875 -32.140625 4.050781 -32.144531 4.84375 -32.15625 C 5.632812 -32.175781 6.519531 -32.1875 7.5 -32.1875 C 8.476562 -32.1875 9.457031 -32.191406 10.4375 -32.203125 C 11.425781 -32.222656 12.234375 -32.234375 12.859375 -32.234375 C 16.722656 -32.234375 19.570312 -31.367188 21.40625 -29.640625 C 23.238281 -27.921875 24.15625 -25.554688 24.15625 -22.546875 C 24.15625 -21.085938 23.898438 -19.75 23.390625 -18.53125 C 22.890625 -17.3125 22.140625 -16.257812 21.140625 -15.375 C 20.148438 -14.488281 18.914062 -13.800781 17.4375 -13.3125 C 15.96875 -12.820312 14.253906 -12.578125 12.296875 -12.578125 L 8.96875 -12.578125 L 8.96875 0 L 3.328125 0 Z M 8.96875 -16.796875 L 12.625 -16.796875 C 14.625 -16.796875 16.050781 -17.316406 16.90625 -18.359375 C 17.757812 -19.410156 18.1875 -20.742188 18.1875 -22.359375 C 18.1875 -23.085938 18.085938 -23.796875 17.890625 -24.484375 C 17.703125 -25.179688 17.378906 -25.804688 16.921875 -26.359375 C 16.460938 -26.921875 15.84375 -27.367188 15.0625 -27.703125 C 14.289062 -28.035156 13.320312 -28.203125 12.15625 -28.203125 C 11.457031 -28.203125 10.847656 -28.203125 10.328125 -28.203125 C 9.804688 -28.203125 9.351562 -28.1875 8.96875 -28.15625 Z M 8.96875 -16.796875 "/></g></g></g></svg>